<mxfile host="app.diagrams.net" modified="2024-07-18T05:43:58.425Z" agent="Mozilla/5.0 (Macintosh; Intel Mac OS X 10_15_7) AppleWebKit/537.36 (KHTML, like Gecko) Chrome/126.0.0.0 Safari/537.36" etag="PhJBjbAs0FVDOHBSEIfa" version="24.7.1" type="github">
  <diagram name="第 1 页" id="hEk644xWBqWTwLnJDk1-">
    <mxGraphModel dx="2049" dy="1296" grid="1" gridSize="10" guides="1" tooltips="1" connect="1" arrows="1" fold="1" page="1" pageScale="1" pageWidth="827" pageHeight="1169" math="0" shadow="0">
      <root>
        <mxCell id="0" />
        <mxCell id="1" parent="0" />
        <mxCell id="mA4usco_O7YDniZOFgtf-1" value="BlockDevice" style="rounded=1;whiteSpace=wrap;html=1;fillColor=#f8cecc;strokeColor=#b85450;" parent="1" vertex="1">
          <mxGeometry x="280" y="400" width="120" height="40" as="geometry" />
        </mxCell>
        <mxCell id="mA4usco_O7YDniZOFgtf-3" value="BlockDevice" style="rounded=1;whiteSpace=wrap;html=1;fillColor=#f8cecc;strokeColor=#b85450;" parent="1" vertex="1">
          <mxGeometry x="440" y="400" width="120" height="40" as="geometry" />
        </mxCell>
        <mxCell id="mA4usco_O7YDniZOFgtf-4" value="BlockDevice" style="rounded=1;whiteSpace=wrap;html=1;fillColor=#f8cecc;strokeColor=#b85450;" parent="1" vertex="1">
          <mxGeometry x="600" y="400" width="120" height="40" as="geometry" />
        </mxCell>
        <mxCell id="mA4usco_O7YDniZOFgtf-5" value="" style="rounded=0;whiteSpace=wrap;html=1;fillColor=none;dashed=1;" parent="1" vertex="1">
          <mxGeometry x="270" y="385" width="460" height="70" as="geometry" />
        </mxCell>
        <mxCell id="mA4usco_O7YDniZOFgtf-6" value="" style="endArrow=classic;html=1;rounded=0;" parent="1" edge="1">
          <mxGeometry width="50" height="50" relative="1" as="geometry">
            <mxPoint x="350" y="200" as="sourcePoint" />
            <mxPoint x="350" y="380" as="targetPoint" />
          </mxGeometry>
        </mxCell>
        <mxCell id="mA4usco_O7YDniZOFgtf-7" value="Allocator" style="rounded=1;whiteSpace=wrap;html=1;fillColor=#dae8fc;strokeColor=#6c8ebf;rotation=-90;" parent="1" vertex="1">
          <mxGeometry x="363" y="263" width="110" height="40" as="geometry" />
        </mxCell>
        <mxCell id="mA4usco_O7YDniZOFgtf-9" value="RocksDB" style="rounded=1;whiteSpace=wrap;html=1;fillColor=#e1d5e7;strokeColor=#9673a6;" parent="1" vertex="1">
          <mxGeometry x="490" y="250" width="200" height="40" as="geometry" />
        </mxCell>
        <mxCell id="mA4usco_O7YDniZOFgtf-10" value="XFS" style="rounded=1;whiteSpace=wrap;html=1;fillColor=#d5e8d4;strokeColor=#82b366;" parent="1" vertex="1">
          <mxGeometry x="490" y="300" width="200" height="40" as="geometry" />
        </mxCell>
        <mxCell id="mA4usco_O7YDniZOFgtf-13" value="" style="endArrow=classic;html=1;rounded=0;" parent="1" edge="1">
          <mxGeometry width="50" height="50" relative="1" as="geometry">
            <mxPoint x="540" y="340" as="sourcePoint" />
            <mxPoint x="540" y="385" as="targetPoint" />
          </mxGeometry>
        </mxCell>
        <mxCell id="mA4usco_O7YDniZOFgtf-14" value="" style="endArrow=classic;html=1;rounded=0;" parent="1" edge="1">
          <mxGeometry width="50" height="50" relative="1" as="geometry">
            <mxPoint x="620" y="340" as="sourcePoint" />
            <mxPoint x="620" y="385" as="targetPoint" />
          </mxGeometry>
        </mxCell>
        <mxCell id="mA4usco_O7YDniZOFgtf-15" value="" style="endArrow=classic;html=1;rounded=0;" parent="1" edge="1">
          <mxGeometry width="50" height="50" relative="1" as="geometry">
            <mxPoint x="580" y="200" as="sourcePoint" />
            <mxPoint x="580" y="250" as="targetPoint" />
          </mxGeometry>
        </mxCell>
        <mxCell id="mA4usco_O7YDniZOFgtf-16" value="metadata" style="text;html=1;align=center;verticalAlign=middle;resizable=0;points=[];autosize=1;strokeColor=none;fillColor=none;fontSize=16;" parent="1" vertex="1">
          <mxGeometry x="534" y="175" width="90" height="30" as="geometry" />
        </mxCell>
        <mxCell id="mA4usco_O7YDniZOFgtf-17" value="data" style="text;html=1;align=center;verticalAlign=middle;resizable=0;points=[];autosize=1;strokeColor=none;fillColor=none;fontSize=16;" parent="1" vertex="1">
          <mxGeometry x="323" y="175" width="50" height="30" as="geometry" />
        </mxCell>
        <mxCell id="mA4usco_O7YDniZOFgtf-18" value="" style="rounded=0;whiteSpace=wrap;html=1;fillColor=none;dashed=1;fontColor=#333333;strokeColor=#666666;" parent="1" vertex="1">
          <mxGeometry x="270" y="163" width="460" height="190" as="geometry" />
        </mxCell>
        <mxCell id="mA4usco_O7YDniZOFgtf-21" value="" style="edgeStyle=orthogonalEdgeStyle;rounded=0;orthogonalLoop=1;jettySize=auto;html=1;" parent="1" source="mA4usco_O7YDniZOFgtf-19" target="mA4usco_O7YDniZOFgtf-18" edge="1">
          <mxGeometry relative="1" as="geometry" />
        </mxCell>
        <mxCell id="mA4usco_O7YDniZOFgtf-19" value="BlobFile" style="rounded=1;whiteSpace=wrap;html=1;fillColor=#fff2cc;strokeColor=#d6b656;" parent="1" vertex="1">
          <mxGeometry x="270" y="80" width="460" height="50" as="geometry" />
        </mxCell>
        <mxCell id="mA4usco_O7YDniZOFgtf-42" value="BlobStore" style="rounded=1;whiteSpace=wrap;html=1;rotation=-90;fillColor=#e1d5e7;strokeColor=#9673a6;" parent="1" vertex="1">
          <mxGeometry x="27.88" y="242.88" width="370" height="54.25" as="geometry" />
        </mxCell>
        <mxCell id="uBYIenyCoJej_w_-4nAD-5" value="BlockDevice" style="rounded=1;whiteSpace=wrap;html=1;fillColor=#f8cecc;strokeColor=#b85450;" parent="1" vertex="1">
          <mxGeometry x="230" y="560" width="460" height="50" as="geometry" />
        </mxCell>
        <mxCell id="uBYIenyCoJej_w_-4nAD-6" value="KernelDevice（HDD/SSD）" style="rounded=1;whiteSpace=wrap;html=1;fillColor=#d5e8d4;strokeColor=#82b366;" parent="1" vertex="1">
          <mxGeometry x="230" y="670" width="180" height="50" as="geometry" />
        </mxCell>
        <mxCell id="uBYIenyCoJej_w_-4nAD-7" value="NVMEDevice（NVME）" style="rounded=1;whiteSpace=wrap;html=1;fillColor=#d5e8d4;strokeColor=#82b366;" parent="1" vertex="1">
          <mxGeometry x="489" y="670" width="180" height="50" as="geometry" />
        </mxCell>
        <mxCell id="uBYIenyCoJej_w_-4nAD-12" value="" style="endArrow=classic;html=1;rounded=0;" parent="1" edge="1">
          <mxGeometry width="50" height="50" relative="1" as="geometry">
            <mxPoint x="320" y="670" as="sourcePoint" />
            <mxPoint x="319.5" y="610" as="targetPoint" />
          </mxGeometry>
        </mxCell>
        <mxCell id="uBYIenyCoJej_w_-4nAD-13" value="KernelIO" style="text;html=1;align=center;verticalAlign=middle;resizable=0;points=[];autosize=1;strokeColor=none;fillColor=none;" parent="1" vertex="1">
          <mxGeometry x="321" y="630" width="65" height="26" as="geometry" />
        </mxCell>
        <mxCell id="uBYIenyCoJej_w_-4nAD-14" value="" style="endArrow=classic;html=1;rounded=0;" parent="1" edge="1">
          <mxGeometry width="50" height="50" relative="1" as="geometry">
            <mxPoint x="580.5" y="670" as="sourcePoint" />
            <mxPoint x="580" y="610" as="targetPoint" />
          </mxGeometry>
        </mxCell>
        <mxCell id="uBYIenyCoJej_w_-4nAD-15" value="SPDK" style="text;html=1;align=center;verticalAlign=middle;resizable=0;points=[];autosize=1;strokeColor=none;fillColor=none;" parent="1" vertex="1">
          <mxGeometry x="579" y="628" width="60" height="30" as="geometry" />
        </mxCell>
        <mxCell id="uBYIenyCoJej_w_-4nAD-18" value="" style="ellipse;whiteSpace=wrap;html=1;aspect=fixed;fillColor=#fff2cc;strokeColor=#d6b656;" parent="1" vertex="1">
          <mxGeometry x="408.5" y="787" width="103" height="103" as="geometry" />
        </mxCell>
        <mxCell id="uBYIenyCoJej_w_-4nAD-19" value="extent-map" style="text;html=1;align=center;verticalAlign=middle;resizable=0;points=[];autosize=1;strokeColor=default;fillColor=none;dashed=1;fontSize=10;rounded=1;" parent="1" vertex="1">
          <mxGeometry x="425" y="840" width="70" height="30" as="geometry" />
        </mxCell>
        <mxCell id="uBYIenyCoJej_w_-4nAD-21" value="extent" style="rounded=1;whiteSpace=wrap;html=1;fontSize=14;fillColor=#d5e8d4;strokeColor=#82b366;" parent="1" vertex="1">
          <mxGeometry x="220" y="945" width="119" height="40" as="geometry" />
        </mxCell>
        <mxCell id="uBYIenyCoJej_w_-4nAD-22" value="extent" style="rounded=1;whiteSpace=wrap;html=1;fontSize=14;fillColor=#d5e8d4;strokeColor=#82b366;" parent="1" vertex="1">
          <mxGeometry x="400.5" y="945" width="119" height="40" as="geometry" />
        </mxCell>
        <mxCell id="uBYIenyCoJej_w_-4nAD-23" value="......" style="rounded=1;whiteSpace=wrap;html=1;fontSize=14;fillColor=#d5e8d4;strokeColor=#82b366;" parent="1" vertex="1">
          <mxGeometry x="579" y="945" width="119" height="40" as="geometry" />
        </mxCell>
        <mxCell id="uBYIenyCoJej_w_-4nAD-24" value="" style="endArrow=classic;html=1;rounded=0;entryX=0.454;entryY=0.013;entryDx=0;entryDy=0;entryPerimeter=0;" parent="1" target="uBYIenyCoJej_w_-4nAD-21" edge="1">
          <mxGeometry width="50" height="50" relative="1" as="geometry">
            <mxPoint x="460" y="889" as="sourcePoint" />
            <mxPoint x="530" y="800" as="targetPoint" />
          </mxGeometry>
        </mxCell>
        <mxCell id="uBYIenyCoJej_w_-4nAD-25" value="" style="endArrow=classic;html=1;rounded=0;exitX=0.5;exitY=1;exitDx=0;exitDy=0;" parent="1" source="uBYIenyCoJej_w_-4nAD-18" target="uBYIenyCoJej_w_-4nAD-22" edge="1">
          <mxGeometry width="50" height="50" relative="1" as="geometry">
            <mxPoint x="480" y="850" as="sourcePoint" />
            <mxPoint x="530" y="800" as="targetPoint" />
          </mxGeometry>
        </mxCell>
        <mxCell id="uBYIenyCoJej_w_-4nAD-26" value="" style="endArrow=classic;html=1;rounded=0;entryX=0.5;entryY=0;entryDx=0;entryDy=0;exitX=0.5;exitY=1;exitDx=0;exitDy=0;" parent="1" source="uBYIenyCoJej_w_-4nAD-18" target="uBYIenyCoJej_w_-4nAD-23" edge="1">
          <mxGeometry width="50" height="50" relative="1" as="geometry">
            <mxPoint x="480" y="850" as="sourcePoint" />
            <mxPoint x="530" y="800" as="targetPoint" />
          </mxGeometry>
        </mxCell>
        <mxCell id="uBYIenyCoJej_w_-4nAD-27" value="" style="rounded=1;whiteSpace=wrap;html=1;fillColor=none;" parent="1" vertex="1">
          <mxGeometry x="305" y="1040" width="315" height="80" as="geometry" />
        </mxCell>
        <mxCell id="uBYIenyCoJej_w_-4nAD-28" style="edgeStyle=orthogonalEdgeStyle;rounded=0;orthogonalLoop=1;jettySize=auto;html=1;exitX=0.5;exitY=1;exitDx=0;exitDy=0;" parent="1" source="uBYIenyCoJej_w_-4nAD-27" target="uBYIenyCoJej_w_-4nAD-27" edge="1">
          <mxGeometry relative="1" as="geometry" />
        </mxCell>
        <mxCell id="uBYIenyCoJej_w_-4nAD-29" value="Bit" style="rounded=1;whiteSpace=wrap;html=1;fillColor=#f8cecc;strokeColor=#b85450;" parent="1" vertex="1">
          <mxGeometry x="326" y="1060" width="60" height="40" as="geometry" />
        </mxCell>
        <mxCell id="uBYIenyCoJej_w_-4nAD-30" value="Bit" style="rounded=1;whiteSpace=wrap;html=1;fillColor=#f8cecc;strokeColor=#b85450;" parent="1" vertex="1">
          <mxGeometry x="435" y="1060" width="60" height="40" as="geometry" />
        </mxCell>
        <mxCell id="uBYIenyCoJej_w_-4nAD-31" value="..." style="rounded=1;whiteSpace=wrap;html=1;fillColor=#f8cecc;strokeColor=#b85450;" parent="1" vertex="1">
          <mxGeometry x="540" y="1060" width="60" height="40" as="geometry" />
        </mxCell>
        <mxCell id="uBYIenyCoJej_w_-4nAD-32" value="" style="endArrow=none;html=1;rounded=0;entryX=0.025;entryY=-0.019;entryDx=0;entryDy=0;entryPerimeter=0;exitX=0;exitY=1;exitDx=0;exitDy=0;dashed=1;" parent="1" source="uBYIenyCoJej_w_-4nAD-22" target="uBYIenyCoJej_w_-4nAD-27" edge="1">
          <mxGeometry width="50" height="50" relative="1" as="geometry">
            <mxPoint x="480" y="850" as="sourcePoint" />
            <mxPoint x="530" y="800" as="targetPoint" />
          </mxGeometry>
        </mxCell>
        <mxCell id="uBYIenyCoJej_w_-4nAD-33" value="" style="endArrow=none;html=1;rounded=0;entryX=1;entryY=0;entryDx=0;entryDy=0;exitX=1;exitY=1;exitDx=0;exitDy=0;dashed=1;" parent="1" source="uBYIenyCoJej_w_-4nAD-22" target="uBYIenyCoJej_w_-4nAD-27" edge="1">
          <mxGeometry width="50" height="50" relative="1" as="geometry">
            <mxPoint x="480" y="850" as="sourcePoint" />
            <mxPoint x="530" y="800" as="targetPoint" />
          </mxGeometry>
        </mxCell>
        <mxCell id="uBYIenyCoJej_w_-4nAD-34" value="Onode" style="text;html=1;align=center;verticalAlign=middle;resizable=0;points=[];autosize=1;strokeColor=none;fillColor=none;fontSize=18;" parent="1" vertex="1">
          <mxGeometry x="420" y="800" width="80" height="40" as="geometry" />
        </mxCell>
        <mxCell id="uBYIenyCoJej_w_-4nAD-37" value="" style="edgeStyle=orthogonalEdgeStyle;rounded=0;orthogonalLoop=1;jettySize=auto;html=1;" parent="1" source="uBYIenyCoJej_w_-4nAD-35" target="uBYIenyCoJej_w_-4nAD-36" edge="1">
          <mxGeometry relative="1" as="geometry" />
        </mxCell>
        <mxCell id="uBYIenyCoJej_w_-4nAD-35" value="POSIX&lt;div&gt;Block写入&lt;/div&gt;" style="rounded=1;whiteSpace=wrap;html=1;fillColor=none;" parent="1" vertex="1">
          <mxGeometry x="1027" y="69.01" width="120" height="37" as="geometry" />
        </mxCell>
        <mxCell id="uBYIenyCoJej_w_-4nAD-41" value="" style="edgeStyle=orthogonalEdgeStyle;rounded=0;orthogonalLoop=1;jettySize=auto;html=1;" parent="1" source="uBYIenyCoJej_w_-4nAD-36" target="uBYIenyCoJej_w_-4nAD-40" edge="1">
          <mxGeometry relative="1" as="geometry" />
        </mxCell>
        <mxCell id="uBYIenyCoJej_w_-4nAD-36" value="创建Onode结构体" style="rounded=1;whiteSpace=wrap;html=1;fillColor=none;" parent="1" vertex="1">
          <mxGeometry x="1027" y="139.01" width="120" height="37" as="geometry" />
        </mxCell>
        <mxCell id="uBYIenyCoJej_w_-4nAD-43" value="" style="edgeStyle=orthogonalEdgeStyle;rounded=0;orthogonalLoop=1;jettySize=auto;html=1;" parent="1" source="uBYIenyCoJej_w_-4nAD-38" target="uBYIenyCoJej_w_-4nAD-39" edge="1">
          <mxGeometry relative="1" as="geometry" />
        </mxCell>
        <mxCell id="uBYIenyCoJej_w_-4nAD-38" value="BlockDevice&lt;div&gt;写入数据&lt;/div&gt;" style="rounded=1;whiteSpace=wrap;html=1;fillColor=none;" parent="1" vertex="1">
          <mxGeometry x="1027" y="268.01" width="120" height="37" as="geometry" />
        </mxCell>
        <mxCell id="uBYIenyCoJej_w_-4nAD-50" value="" style="edgeStyle=orthogonalEdgeStyle;rounded=0;orthogonalLoop=1;jettySize=auto;html=1;" parent="1" source="uBYIenyCoJej_w_-4nAD-39" target="uBYIenyCoJej_w_-4nAD-49" edge="1">
          <mxGeometry relative="1" as="geometry" />
        </mxCell>
        <mxCell id="uBYIenyCoJej_w_-4nAD-56" value="" style="edgeStyle=orthogonalEdgeStyle;rounded=0;orthogonalLoop=1;jettySize=auto;html=1;" parent="1" source="uBYIenyCoJej_w_-4nAD-39" target="uBYIenyCoJej_w_-4nAD-55" edge="1">
          <mxGeometry relative="1" as="geometry" />
        </mxCell>
        <mxCell id="uBYIenyCoJej_w_-4nAD-39" value="RocksDB写入&lt;div&gt;Onode元数据&lt;/div&gt;" style="rounded=1;whiteSpace=wrap;html=1;fillColor=none;" parent="1" vertex="1">
          <mxGeometry x="1027" y="336.01" width="120" height="37" as="geometry" />
        </mxCell>
        <mxCell id="uBYIenyCoJej_w_-4nAD-42" value="" style="edgeStyle=orthogonalEdgeStyle;rounded=0;orthogonalLoop=1;jettySize=auto;html=1;" parent="1" source="uBYIenyCoJej_w_-4nAD-40" target="uBYIenyCoJej_w_-4nAD-38" edge="1">
          <mxGeometry relative="1" as="geometry" />
        </mxCell>
        <mxCell id="uBYIenyCoJej_w_-4nAD-40" value="Allocator分配空间" style="rounded=1;whiteSpace=wrap;html=1;fillColor=none;" parent="1" vertex="1">
          <mxGeometry x="1027" y="206.01" width="120" height="37" as="geometry" />
        </mxCell>
        <mxCell id="uBYIenyCoJej_w_-4nAD-48" style="edgeStyle=orthogonalEdgeStyle;rounded=0;orthogonalLoop=1;jettySize=auto;html=1;exitX=0.5;exitY=1;exitDx=0;exitDy=0;entryX=0.5;entryY=0;entryDx=0;entryDy=0;" parent="1" source="uBYIenyCoJej_w_-4nAD-44" target="uBYIenyCoJej_w_-4nAD-35" edge="1">
          <mxGeometry relative="1" as="geometry" />
        </mxCell>
        <mxCell id="uBYIenyCoJej_w_-4nAD-44" value="" style="ellipse;whiteSpace=wrap;html=1;aspect=fixed;fillColor=#1A1A1A;" parent="1" vertex="1">
          <mxGeometry x="1077" y="19.010000000000005" width="20" height="20" as="geometry" />
        </mxCell>
        <mxCell id="uBYIenyCoJej_w_-4nAD-45" style="edgeStyle=orthogonalEdgeStyle;rounded=0;orthogonalLoop=1;jettySize=auto;html=1;exitX=0.5;exitY=0;exitDx=0;exitDy=0;entryX=0.5;entryY=1;entryDx=0;entryDy=0;" parent="1" source="uBYIenyCoJej_w_-4nAD-44" target="uBYIenyCoJej_w_-4nAD-44" edge="1">
          <mxGeometry relative="1" as="geometry">
            <Array as="points">
              <mxPoint x="1087" y="39.010000000000005" />
              <mxPoint x="1087" y="39.010000000000005" />
            </Array>
          </mxGeometry>
        </mxCell>
        <mxCell id="uBYIenyCoJej_w_-4nAD-49" value="" style="ellipse;whiteSpace=wrap;html=1;aspect=fixed;fillColor=#1A1A1A;" parent="1" vertex="1">
          <mxGeometry x="1077" y="409.01" width="20" height="20" as="geometry" />
        </mxCell>
        <mxCell id="uBYIenyCoJej_w_-4nAD-51" style="edgeStyle=orthogonalEdgeStyle;rounded=0;orthogonalLoop=1;jettySize=auto;html=1;exitX=1;exitY=1;exitDx=0;exitDy=0;entryX=1;entryY=0;entryDx=0;entryDy=0;" parent="1" source="uBYIenyCoJej_w_-4nAD-49" target="uBYIenyCoJej_w_-4nAD-49" edge="1">
          <mxGeometry relative="1" as="geometry" />
        </mxCell>
        <mxCell id="uBYIenyCoJej_w_-4nAD-52" value="FreeManager" style="rounded=1;whiteSpace=wrap;html=1;fillColor=none;" parent="1" vertex="1">
          <mxGeometry x="1237" y="136.01" width="120" height="37" as="geometry" />
        </mxCell>
        <mxCell id="uBYIenyCoJej_w_-4nAD-53" value="size、crc等" style="rounded=1;whiteSpace=wrap;html=1;fillColor=none;" parent="1" vertex="1">
          <mxGeometry x="1237" y="198.01" width="120" height="37" as="geometry" />
        </mxCell>
        <mxCell id="uBYIenyCoJej_w_-4nAD-54" value="Merge/Set&amp;nbsp;&lt;div&gt;Batch原子写入&lt;/div&gt;" style="rounded=1;whiteSpace=wrap;html=1;fillColor=none;" parent="1" vertex="1">
          <mxGeometry x="1237" y="265.01" width="120" height="37" as="geometry" />
        </mxCell>
        <mxCell id="uBYIenyCoJej_w_-4nAD-55" value="" style="rounded=0;whiteSpace=wrap;html=1;fillColor=none;" parent="1" vertex="1">
          <mxGeometry x="1217" y="106.01" width="160" height="232" as="geometry" />
        </mxCell>
        <mxCell id="uBYIenyCoJej_w_-4nAD-61" value="" style="edgeStyle=orthogonalEdgeStyle;rounded=0;orthogonalLoop=1;jettySize=auto;html=1;" parent="1" source="uBYIenyCoJej_w_-4nAD-57" target="uBYIenyCoJej_w_-4nAD-58" edge="1">
          <mxGeometry relative="1" as="geometry" />
        </mxCell>
        <mxCell id="uBYIenyCoJej_w_-4nAD-57" value="POSIX&lt;div&gt;Block读取&lt;/div&gt;" style="rounded=1;whiteSpace=wrap;html=1;fillColor=none;" parent="1" vertex="1">
          <mxGeometry x="950" y="484.01" width="120" height="37" as="geometry" />
        </mxCell>
        <mxCell id="uBYIenyCoJej_w_-4nAD-62" value="" style="edgeStyle=orthogonalEdgeStyle;rounded=0;orthogonalLoop=1;jettySize=auto;html=1;" parent="1" source="uBYIenyCoJej_w_-4nAD-58" target="uBYIenyCoJej_w_-4nAD-59" edge="1">
          <mxGeometry relative="1" as="geometry" />
        </mxCell>
        <mxCell id="uBYIenyCoJej_w_-4nAD-58" value="创建Onode结构体" style="rounded=1;whiteSpace=wrap;html=1;fillColor=none;" parent="1" vertex="1">
          <mxGeometry x="1103" y="484.01" width="120" height="37" as="geometry" />
        </mxCell>
        <mxCell id="uBYIenyCoJej_w_-4nAD-63" value="" style="edgeStyle=orthogonalEdgeStyle;rounded=0;orthogonalLoop=1;jettySize=auto;html=1;" parent="1" source="uBYIenyCoJej_w_-4nAD-59" target="uBYIenyCoJej_w_-4nAD-60" edge="1">
          <mxGeometry relative="1" as="geometry" />
        </mxCell>
        <mxCell id="uBYIenyCoJej_w_-4nAD-59" value="KV读取元数据" style="rounded=1;whiteSpace=wrap;html=1;fillColor=none;" parent="1" vertex="1">
          <mxGeometry x="1262" y="484.01" width="120" height="37" as="geometry" />
        </mxCell>
        <mxCell id="uBYIenyCoJej_w_-4nAD-60" value="BlockDevice读取数据" style="rounded=1;whiteSpace=wrap;html=1;fillColor=none;" parent="1" vertex="1">
          <mxGeometry x="1421" y="484.01" width="120" height="37" as="geometry" />
        </mxCell>
        <mxCell id="qF25KTgNBB7xR8GcAoYN-1" value="Cluster" style="rounded=1;whiteSpace=wrap;html=1;fillColor=#e1d5e7;strokeColor=#9673a6;" vertex="1" parent="1">
          <mxGeometry x="1158.5" y="920" width="90" height="30" as="geometry" />
        </mxCell>
        <mxCell id="qF25KTgNBB7xR8GcAoYN-2" value="DC" style="rounded=1;whiteSpace=wrap;html=1;fillColor=#dae8fc;strokeColor=#6c8ebf;" vertex="1" parent="1">
          <mxGeometry x="1048.5" y="973" width="80" height="30" as="geometry" />
        </mxCell>
        <mxCell id="qF25KTgNBB7xR8GcAoYN-4" value="DC" style="rounded=1;whiteSpace=wrap;html=1;fillColor=#dae8fc;strokeColor=#6c8ebf;" vertex="1" parent="1">
          <mxGeometry x="1163.5" y="973" width="80" height="30" as="geometry" />
        </mxCell>
        <mxCell id="qF25KTgNBB7xR8GcAoYN-5" value="DC" style="rounded=1;whiteSpace=wrap;html=1;fillColor=#dae8fc;strokeColor=#6c8ebf;" vertex="1" parent="1">
          <mxGeometry x="1275.5" y="973" width="80" height="30" as="geometry" />
        </mxCell>
        <mxCell id="qF25KTgNBB7xR8GcAoYN-6" value="" style="shape=curlyBracket;whiteSpace=wrap;html=1;rounded=1;labelPosition=left;verticalLabelPosition=middle;align=right;verticalAlign=middle;rotation=90;" vertex="1" parent="1">
          <mxGeometry x="1188.5" y="840" width="20" height="240" as="geometry" />
        </mxCell>
        <mxCell id="qF25KTgNBB7xR8GcAoYN-7" value="Rack" style="rounded=1;whiteSpace=wrap;html=1;fillColor=#d5e8d4;strokeColor=#82b366;" vertex="1" parent="1">
          <mxGeometry x="1048.5" y="1030" width="80" height="30" as="geometry" />
        </mxCell>
        <mxCell id="qF25KTgNBB7xR8GcAoYN-8" value="Rack" style="rounded=1;whiteSpace=wrap;html=1;fillColor=#d5e8d4;strokeColor=#82b366;" vertex="1" parent="1">
          <mxGeometry x="1163.5" y="1030" width="80" height="30" as="geometry" />
        </mxCell>
        <mxCell id="qF25KTgNBB7xR8GcAoYN-9" value="Rack" style="rounded=1;whiteSpace=wrap;html=1;fillColor=#d5e8d4;strokeColor=#82b366;" vertex="1" parent="1">
          <mxGeometry x="1275.5" y="1030" width="80" height="30" as="geometry" />
        </mxCell>
        <mxCell id="qF25KTgNBB7xR8GcAoYN-10" value="" style="shape=curlyBracket;whiteSpace=wrap;html=1;rounded=1;labelPosition=left;verticalLabelPosition=middle;align=right;verticalAlign=middle;rotation=90;" vertex="1" parent="1">
          <mxGeometry x="1188.5" y="897" width="20" height="240" as="geometry" />
        </mxCell>
        <mxCell id="qF25KTgNBB7xR8GcAoYN-11" value="Host" style="rounded=1;whiteSpace=wrap;html=1;fillColor=#f8cecc;strokeColor=#b85450;" vertex="1" parent="1">
          <mxGeometry x="1048.5" y="1083" width="80" height="30" as="geometry" />
        </mxCell>
        <mxCell id="qF25KTgNBB7xR8GcAoYN-12" value="Host" style="rounded=1;whiteSpace=wrap;html=1;fillColor=#f8cecc;strokeColor=#b85450;" vertex="1" parent="1">
          <mxGeometry x="1163.5" y="1083" width="80" height="30" as="geometry" />
        </mxCell>
        <mxCell id="qF25KTgNBB7xR8GcAoYN-13" value="Host" style="rounded=1;whiteSpace=wrap;html=1;fillColor=#f8cecc;strokeColor=#b85450;" vertex="1" parent="1">
          <mxGeometry x="1275.5" y="1083" width="80" height="30" as="geometry" />
        </mxCell>
        <mxCell id="qF25KTgNBB7xR8GcAoYN-14" value="" style="shape=curlyBracket;whiteSpace=wrap;html=1;rounded=1;labelPosition=left;verticalLabelPosition=middle;align=right;verticalAlign=middle;rotation=90;" vertex="1" parent="1">
          <mxGeometry x="1188.5" y="950" width="20" height="240" as="geometry" />
        </mxCell>
        <mxCell id="qF25KTgNBB7xR8GcAoYN-15" value="Disk" style="rounded=1;whiteSpace=wrap;html=1;fillColor=#ffe6cc;strokeColor=#d79b00;" vertex="1" parent="1">
          <mxGeometry x="1050" y="1137" width="80" height="30" as="geometry" />
        </mxCell>
        <mxCell id="qF25KTgNBB7xR8GcAoYN-16" value="Disk" style="rounded=1;whiteSpace=wrap;html=1;fillColor=#ffe6cc;strokeColor=#d79b00;" vertex="1" parent="1">
          <mxGeometry x="1165" y="1137" width="80" height="30" as="geometry" />
        </mxCell>
        <mxCell id="qF25KTgNBB7xR8GcAoYN-17" value="Disk" style="rounded=1;whiteSpace=wrap;html=1;fillColor=#ffe6cc;strokeColor=#d79b00;" vertex="1" parent="1">
          <mxGeometry x="1277" y="1137" width="80" height="30" as="geometry" />
        </mxCell>
        <mxCell id="qF25KTgNBB7xR8GcAoYN-18" value="" style="shape=curlyBracket;whiteSpace=wrap;html=1;rounded=1;labelPosition=left;verticalLabelPosition=middle;align=right;verticalAlign=middle;rotation=90;" vertex="1" parent="1">
          <mxGeometry x="1190" y="1004" width="20" height="240" as="geometry" />
        </mxCell>
        <mxCell id="qF25KTgNBB7xR8GcAoYN-19" value="" style="edgeStyle=orthogonalEdgeStyle;rounded=0;orthogonalLoop=1;jettySize=auto;html=1;" edge="1" parent="1" source="qF25KTgNBB7xR8GcAoYN-20" target="qF25KTgNBB7xR8GcAoYN-22">
          <mxGeometry relative="1" as="geometry" />
        </mxCell>
        <mxCell id="qF25KTgNBB7xR8GcAoYN-20" value="POSIX&lt;div&gt;Block删除&lt;/div&gt;" style="rounded=1;whiteSpace=wrap;html=1;fillColor=none;" vertex="1" parent="1">
          <mxGeometry x="874" y="566.5" width="120" height="37" as="geometry" />
        </mxCell>
        <mxCell id="qF25KTgNBB7xR8GcAoYN-21" value="" style="edgeStyle=orthogonalEdgeStyle;rounded=0;orthogonalLoop=1;jettySize=auto;html=1;" edge="1" parent="1" source="qF25KTgNBB7xR8GcAoYN-22" target="qF25KTgNBB7xR8GcAoYN-24">
          <mxGeometry relative="1" as="geometry" />
        </mxCell>
        <mxCell id="qF25KTgNBB7xR8GcAoYN-22" value="KV读取元数据" style="rounded=1;whiteSpace=wrap;html=1;fillColor=none;" vertex="1" parent="1">
          <mxGeometry x="1027" y="566.5" width="120" height="37" as="geometry" />
        </mxCell>
        <mxCell id="qF25KTgNBB7xR8GcAoYN-23" value="" style="edgeStyle=orthogonalEdgeStyle;rounded=0;orthogonalLoop=1;jettySize=auto;html=1;" edge="1" parent="1" source="qF25KTgNBB7xR8GcAoYN-24" target="qF25KTgNBB7xR8GcAoYN-25">
          <mxGeometry relative="1" as="geometry" />
        </mxCell>
        <mxCell id="qF25KTgNBB7xR8GcAoYN-24" value="释放Allocator&lt;div&gt;L0/L1/L2 每层Bit&lt;/div&gt;" style="rounded=1;whiteSpace=wrap;html=1;fillColor=none;" vertex="1" parent="1">
          <mxGeometry x="1186" y="566.5" width="120" height="37" as="geometry" />
        </mxCell>
        <mxCell id="qF25KTgNBB7xR8GcAoYN-30" value="" style="edgeStyle=orthogonalEdgeStyle;rounded=0;orthogonalLoop=1;jettySize=auto;html=1;" edge="1" parent="1" source="qF25KTgNBB7xR8GcAoYN-25" target="qF25KTgNBB7xR8GcAoYN-27">
          <mxGeometry relative="1" as="geometry" />
        </mxCell>
        <mxCell id="qF25KTgNBB7xR8GcAoYN-25" value="KV删除Onode Key" style="rounded=1;whiteSpace=wrap;html=1;fillColor=none;" vertex="1" parent="1">
          <mxGeometry x="1345" y="566.5" width="120" height="37" as="geometry" />
        </mxCell>
        <mxCell id="qF25KTgNBB7xR8GcAoYN-27" value="BlockDevice&lt;div&gt;无需删除数据&lt;/div&gt;" style="rounded=1;whiteSpace=wrap;html=1;fillColor=none;" vertex="1" parent="1">
          <mxGeometry x="1500" y="566.5" width="120" height="37" as="geometry" />
        </mxCell>
        <mxCell id="qF25KTgNBB7xR8GcAoYN-28" value="" style="shape=curlyBracket;whiteSpace=wrap;html=1;rounded=1;flipH=1;labelPosition=right;verticalLabelPosition=middle;align=left;verticalAlign=middle;rotation=90;" vertex="1" parent="1">
          <mxGeometry x="1312" y="560" width="20" height="120" as="geometry" />
        </mxCell>
        <mxCell id="qF25KTgNBB7xR8GcAoYN-29" value="Merge/Delete&lt;div&gt;Batch原子写入&lt;/div&gt;" style="rounded=1;whiteSpace=wrap;html=1;fillColor=none;" vertex="1" parent="1">
          <mxGeometry x="1262" y="633" width="120" height="37" as="geometry" />
        </mxCell>
      </root>
    </mxGraphModel>
  </diagram>
</mxfile>
